<?xml version="1.0" encoding="utf-8"?>
<!-- Generator: Adobe Illustrator 15.0.0, SVG Export Plug-In . SVG Version: 6.00 Build 0)  -->
<!DOCTYPE svg PUBLIC "-//W3C//DTD SVG 1.1//EN" "http://www.w3.org/Graphics/SVG/1.1/DTD/svg11.dtd">
<svg version="1.1" id="Layer_1" xmlns="http://www.w3.org/2000/svg" xmlns:xlink="http://www.w3.org/1999/xlink" x="0px" y="0px"
	 width="195px" height="43px" viewBox="0 0 195 43" enable-background="new 0 0 195 43" xml:space="preserve">
<g>
	<path fill="#FFFFFF" d="M74.996,27.525c-0.07,0.032,0.272-1.213,0.411-1.729l0.192-0.715c0.121-0.456,0.239-0.914,0.346-1.377
		c0.367-1.599,0.611-3.071,0.746-4.497c0.445-4.718-1.15-8.251-4.495-9.955c-1.802-0.917-3.884-1.389-6.022-1.366
		c-0.396,0.004-0.796,0.025-1.19,0.063c-1.595,0.15-3.242,0.57-5.036,1.281l-1.891,0.75l-0.095,2.032
		c-0.027,0.606,0.007,1.188,0.104,1.736c-0.482-0.168-0.992-0.253-1.515-0.246c-2.323,0.023-4.393,1.823-4.82,4.188
		c-0.091-2.297-0.265-6.681-0.265-6.681l-3.292,0.275c-1.547,0.136-2.957,0.481-4.22,1.036c-0.219-1.663-1.1-3.115-2.514-4.124
		c-1.334-0.971-2.833-1.452-4.45-1.436l-0.169,0.003c-1.152,0.038-2.249,0.315-3.234,0.812C33.59,7.48,33.6,7.182,33.6,7.182
		c0.018-0.628,0.039-1.342,0.036-1.683c0.001-0.129-0.002-0.233-0.008-0.317l-0.067-1.215l-0.884-0.857
		c-0.969-0.94-2.402-1.492-3.83-1.479c-1.257,0.014-2.402,0.472-3.224,1.29c-1.54,1.528-1.527,3.663-1.522,4.466
		c0.006,1.459,0.179,2.847,0.345,4.188l0.039,0.316c0.222,1.8,0.265,3.628,0.261,5.817l-0.001,0.325
		c-0.004,1.723-0.008,3.35-0.135,4.973c0,0-0.036,0.507-0.051,0.669c-0.42-0.266-0.861-0.598-1.309-0.932
		c-2.497-1.872-4.871-4.091-6.965-6.049l-0.449-0.419c-0.744-0.694-1.487-1.388-2.233-2.077l-0.035-0.035l-0.134-0.112
		c-1.275-1.076-3.413-2.878-5.888-2.852c-0.653,0.006-1.278,0.141-1.862,0.395c-2.4,1.05-4.395,3.403-5.208,6.142
		c-0.257,0.867-0.371,1.722-0.457,2.521c-0.201,1.951,1.271,2.614,2.974,3.383c0.121,0.054,0.219,0.097,0.233,0.104
		c2.786,1.429,5.418,3.153,7.849,4.808c1.691,1.148,3.411,2.356,5.112,3.593l0.29,0.207c2.483,1.803,4.83,3.505,6.924,5.529
		c0.645,0.626,1.407,1.342,2.322,1.945c0.92,0.605,2.055,0.932,3.195,0.921c1.045-0.012,2.02-0.308,2.816-0.854
		c0.904-0.619,1.612-1.496,2.1-2.588c0.848,0.979,2.008,1.551,3.2,1.539c1.149-0.014,2.206-0.548,2.978-1.508
		c0.78-0.975,1.15-2.105,1.38-3.032c0.46,1.668,1.491,4.575,4.437,5.588c0.684,0.234,1.379,0.35,2.07,0.343h0.001
		c2.704-0.027,5.036-1.797,6.943-5.261c0.438,1.624,1.153,2.913,2.155,3.892c1.215,1.187,2.785,1.806,4.539,1.787l0.07-0.001
		c1.796-0.04,3.556-0.825,5.233-2.329c0.132,0.143,0.279,0.286,0.455,0.42c0.869,0.687,1.954,1.045,3.144,1.032h0.001
		c2.337-0.025,6.333-2.792,7.076-4.551C77.518,35.226,73.764,31.242,74.996,27.525z"/>
</g>
<linearGradient id="SVGID_1_" gradientUnits="userSpaceOnUse" x1="97.4609" y1="-953.231" x2="179.5264" y2="-953.231" gradientTransform="matrix(1 0 0 -1 -94.915 -932.042)">
	<stop  offset="0" style="stop-color:#EA2227"/>
	<stop  offset="0.0098" style="stop-color:#EB2F26"/>
	<stop  offset="0.0403" style="stop-color:#EF5324"/>
	<stop  offset="0.0712" style="stop-color:#F26E22"/>
	<stop  offset="0.1021" style="stop-color:#F48221"/>
	<stop  offset="0.1332" style="stop-color:#F68E20"/>
	<stop  offset="0.1647" style="stop-color:#F69220"/>
	<stop  offset="0.3054" style="stop-color:#FFC113"/>
	<stop  offset="0.3362" style="stop-color:#F0C219"/>
	<stop  offset="0.3954" style="stop-color:#C9C328"/>
	<stop  offset="0.476" style="stop-color:#8BC541"/>
	<stop  offset="0.6257" style="stop-color:#26AAE1"/>
	<stop  offset="0.7718" style="stop-color:#1284C6"/>
	<stop  offset="0.8604" style="stop-color:#0872B9"/>
	<stop  offset="0.884" style="stop-color:#265DAB"/>
	<stop  offset="0.912" style="stop-color:#41499F"/>
	<stop  offset="0.9402" style="stop-color:#553A95"/>
	<stop  offset="0.9685" style="stop-color:#613290"/>
	<stop  offset="0.997" style="stop-color:#652F8E"/>
	<stop  offset="1" style="stop-color:#652F8E"/>
</linearGradient>
<path fill="url(#SVGID_1_)" d="M33.725,20.952l-0.221,0.185c0.151,1.25,0.316,2.498,0.459,3.746
	c0.222,1.957,0.524,3.908,0.741,5.865c0.063,0.589,0.075,1.183,0.164,1.769c0.124,0.812,0.318,1.821,0.722,2.542
	c0.533,0.953,1.642,1.553,2.456,0.54c0.597-0.748,0.83-1.765,1.027-2.675c0.236-1.11,0.5-2.215,0.699-3.332
	c0.37-2.083,0.673-4.172,0.849-6.28c0.09-1.073,0.137-2.148,0.149-3.224c0.005-0.372-0.144-1.236-1.613-1.253
	c-0.027,0-0.054-0.001-0.083-0.001C37.206,18.835,35.409,19.548,33.725,20.952 M48.394,13.938c-2.605,0.228-4.688,1.188-6.192,2.856
	l-0.143,0.155c0.015,4.145,0.214,8.267,0.938,12.357c0.22,1.252,0.489,2.496,0.808,3.729c0.425,1.651,1.094,3.657,2.877,4.27
	c3.02,1.038,5.123-2.178,6.242-4.458c1.402-2.858,2.482-5.859,3.564-8.855c0.466-1.29,0.926-2.588,1.439-3.863
	c0.267-0.658,0.529-1.42,0.498-2.123c-0.023-0.529-0.213-1.023-0.693-1.417c-1.357-1.108-3.207,0.032-3.482,1.594
	c-2.018,11.404-4.125,12.919-4.607,13.062c-0.035-0.971-0.685-17.354-0.685-17.354L48.394,13.938z M63.115,31.242
	c-0.358-0.119-0.652-0.409-0.867-0.849c-0.506-1.018-0.485-2.629,0.05-4.197c0.787-2.317,2.489-3.924,3.724-3.507
	c1.23,0.417,1.603,2.733,0.816,5.046c-0.703,2.071-2.138,3.572-3.313,3.572C63.385,31.308,63.248,31.286,63.115,31.242
	 M65.098,10.624c-1.479,0.141-2.91,0.555-4.289,1.103l-0.32,0.127L60.472,12.2c-0.074,1.61,0.601,3.316,1.862,3.382
	c0.779,0.04,1.838-0.302,2.952-0.659c1.014-0.323,2.158-0.692,2.798-0.635l0.014,0.004h0.014c0.972,0.054,1.692,1.013,1.69,1.835
	c-0.005,0.954-0.9,1.548-2.463,1.624c-2.841,0.181-6.461,1.547-8.177,4.179c-1.622,2.489-2.314,5.038-2.301,8.521
	c0.014,3.065,0.645,5.229,1.876,6.434c0.727,0.71,1.636,1.057,2.71,1.035c1.264-0.025,2.575-0.699,3.904-2.008
	c0.608-0.594,1.169-0.895,1.665-0.899c0.488,0,0.999,0.676,1.307,1.075c0.164,0.222,0.284,0.384,0.423,0.486
	c1.645,1.323,4.586-0.462,5.252-1.185l0.319-0.345l-0.301-0.362c-1.308-1.578-2.155-3.424-2.103-5.478
	c0.002-0.117,0.009-0.236,0.018-0.357c0.113-1.517,0.571-2.992,0.959-4.455c0.111-0.428,0.221-0.855,0.322-1.285
	c0.312-1.361,0.554-2.738,0.684-4.13c0.272-2.869-0.266-5.908-3.057-7.328c-1.441-0.733-3.047-1.076-4.657-1.076
	C65.822,10.572,65.46,10.59,65.098,10.624 M36.986,9.459c-1.133,0.037-2.14,0.401-2.979,1.073c-0.887,0.714-1.316,1.663-1.279,2.829
	c0.039,1.162,0.529,2.084,1.461,2.739c0.879,0.619,1.908,0.913,3.042,0.876c1.106-0.035,2.096-0.402,2.933-1.097
	c0.888-0.718,1.314-1.665,1.277-2.801c-0.037-1.108-0.53-2.015-1.475-2.689c-0.851-0.618-1.797-0.932-2.818-0.932
	C37.095,9.458,37.041,9.459,36.986,9.459 M27.609,4.891c-0.67,0.664-0.754,1.698-0.748,2.586c0.007,1.397,0.191,2.782,0.364,4.166
	c0.248,2.022,0.281,4.063,0.274,6.098c-0.002,1.816,0.003,3.639-0.139,5.451c-0.075,0.968-0.123,2.216-0.715,3.04
	c-0.391,0.545-0.998,0.587-1.604,0.417c-1.162-0.331-2.218-1.131-3.168-1.844c-2.518-1.888-4.834-4.039-7.13-6.184
	c-0.883-0.822-1.764-1.649-2.651-2.471l-0.011-0.008l-0.009-0.009c-1.201-1.012-3.333-2.846-5.045-2.097
	c-1.801,0.789-3.178,2.611-3.726,4.456c-0.197,0.669-0.285,1.352-0.359,2.04c-0.011,0.101,1.613,0.798,1.788,0.889
	c2.805,1.439,5.461,3.163,8.064,4.934c1.732,1.177,3.445,2.382,5.142,3.613c2.581,1.87,5.146,3.711,7.44,5.933
	c0.604,0.586,1.221,1.161,1.928,1.627c0.869,0.569,2.213,0.686,3.081,0.091c0.963-0.659,1.429-1.863,1.616-2.974
	c0.105-0.631,0.139-1.282,0.146-1.921c0.01-1.063-0.099-2.131-0.211-3.185c-0.082-0.753-0.168-1.493-0.221-2.198
	c-0.316-4.297-0.411-8.611-0.522-12.918c-0.028-1.056-0.051-2.112-0.069-3.166c-0.014-0.81-0.029-1.617-0.032-2.426
	c-0.002-0.626,0-1.127,0.015-1.503c0.02-0.614,0.041-1.36,0.04-1.72c0-0.064-0.001-0.115-0.004-0.152l-0.012-0.211l-0.147-0.144
	c-0.469-0.453-1.223-0.738-1.945-0.738C28.5,4.364,27.977,4.524,27.609,4.891"/>
<path fill="#FFFFFF" d="M194.42,19.975c-0.167-0.701-0.461-1.327-0.869-1.86c-0.455-0.595-1.04-1.053-1.73-1.357
	c-1.154-0.512-2.644-0.602-4.161-0.015c-0.036,0.014-0.075,0.029-0.111,0.045c-0.628-0.298-1.348-0.449-2.146-0.449
	c-0.473,0-0.944,0.07-1.407,0.21c-0.179-0.04-0.364-0.061-0.555-0.061h-1.901c-0.627,0-1.2,0.231-1.641,0.608
	c-0.204-0.113-0.414-0.22-0.635-0.309c-1.459-0.597-3.255-0.597-4.714,0c-0.327,0.134-0.633,0.299-0.924,0.483
	c-0.297-0.193-0.604-0.363-0.927-0.491c-0.734-0.293-1.523-0.441-2.34-0.441c-0.873,0-1.688,0.159-2.417,0.475
	c-0.771,0.331-1.435,0.816-1.976,1.445c-0.501,0.583-0.887,1.275-1.148,2.056c-0.004,0.014-0.007,0.028-0.01,0.041
	c-0.121-0.184-0.25-0.362-0.395-0.529l0.82-1.856c0.545-1.239,0.017-2.691-1.199-3.286c-0.804-0.393-1.627-0.698-2.45-0.906
	c-0.855-0.216-1.752-0.326-2.659-0.326c-1.503,0-2.785,0.296-3.838,0.876c-0.359-0.322-0.806-0.549-1.308-0.621V12.66
	c0-0.826-0.401-1.598-1.077-2.07c-0.677-0.472-1.539-0.585-2.314-0.303l-3.232,1.183c-0.996,0.363-1.658,1.312-1.658,2.371v0.031
	c-0.192,0.08-0.369,0.188-0.534,0.311c-0.144-0.076-0.288-0.153-0.442-0.219c-0.766-0.327-1.655-0.493-2.642-0.493
	c-0.634,0-1.29,0.118-1.96,0.354c-0.265-0.096-0.553-0.147-0.85-0.147h-3.273c-0.683,0-1.3,0.272-1.754,0.711
	c-0.204-0.117-0.414-0.228-0.635-0.326c-0.913-0.406-1.973-0.612-3.154-0.612c-1.097,0-2.116,0.187-3.031,0.557
	c-0.761,0.307-1.44,0.731-2.03,1.257c-0.771-0.899-2.112-1.813-4.381-1.813c-0.917,0-1.833,0.208-2.719,0.617
	c-0.092,0.042-0.182,0.086-0.271,0.132c-0.822-0.497-1.809-0.749-2.937-0.749c-0.645,0-1.297,0.118-1.95,0.354
	c-0.246-0.081-0.511-0.126-0.785-0.126h-3.274c-0.131,0-0.261,0.013-0.387,0.032c-0.125-0.019-0.251-0.032-0.379-0.032h-3.254
	c-0.93,0-1.768,0.508-2.208,1.299c-0.438-0.789-1.277-1.299-2.206-1.299h-3.357c-0.472,0-0.924,0.136-1.315,0.375
	c-0.964-0.405-2.106-0.623-3.411-0.623c-0.864,0-1.734,0.086-2.591,0.254c-0.89,0.176-1.733,0.444-2.507,0.801
	c-0.22,0.102-0.411,0.238-0.586,0.389c-0.439-0.373-0.92-0.682-1.451-0.903c-1.35-0.567-2.899-0.693-4.461-0.17
	c-0.245-0.078-0.505-0.122-0.775-0.122h-3.254c-1.395,0-2.525,1.131-2.525,2.525v14.548c0,0.833,0.41,1.609,1.096,2.081
	c0.426,0.294,0.926,0.443,1.43,0.443c0.305,0,0.611-0.055,0.905-0.168c0.527-0.201,1.056-0.4,1.59-0.597
	c0.535-0.197,1.073-0.39,1.613-0.578c1.013-0.355,1.689-1.312,1.689-2.383v-0.502c0.812-0.004,1.615-0.159,2.391-0.461
	c0.587-0.229,1.125-0.554,1.618-0.959c0.018,0.016,0.031,0.034,0.049,0.049c0.576,0.523,1.261,0.907,2.041,1.142
	c0.648,0.193,1.353,0.293,2.092,0.293c0.281,0,0.59-0.026,0.953-0.084c0.357-0.056,0.73-0.148,1.109-0.274
	c0.014-0.004,0.027-0.009,0.042-0.015c0.226,0.067,0.467,0.103,0.714,0.103h3.213c0.32,0,0.627-0.063,0.912-0.172l-0.301,0.829
	c-0.28,0.774-0.168,1.637,0.307,2.312c0.473,0.672,1.243,1.072,2.065,1.072h3.214c1.06,0,2.008-0.662,2.369-1.659l1.347-3.687
	c0.43,0.777,1.259,1.304,2.21,1.304h3.274c0.508,0,0.981-0.149,1.378-0.408c0.396,0.259,0.869,0.408,1.379,0.408h3.272
	c0.51,0,0.983-0.149,1.38-0.408c0.396,0.259,0.869,0.408,1.377,0.408h3.275c0.754,0,1.428-0.331,1.891-0.855
	c0.329,0.195,0.672,0.375,1.042,0.522c0.938,0.373,2.009,0.562,3.183,0.562c0.863,0,1.726-0.104,2.563-0.312
	c0.445-0.109,0.896-0.262,1.35-0.457c0.43,0.339,0.971,0.541,1.559,0.541h3.273c0.592,0,1.135-0.202,1.565-0.543
	c0.43,0.339,0.973,0.542,1.565,0.542h3.273c0.768,0,1.455-0.344,1.918-0.885c0.979,0.749,2.217,1.134,3.697,1.134
	c1.089,0,2.268-0.169,3.499-0.502c0.146-0.039,0.286-0.092,0.42-0.155c0.267,0.094,0.537,0.182,0.812,0.257
	c0.966,0.267,1.941,0.4,2.896,0.4c0.87,0,1.688-0.095,2.433-0.283c0.567-0.143,1.085-0.346,1.559-0.596
	c0.641,0.515,1.436,0.796,2.277,0.796c0.846,0,1.642-0.288,2.287-0.814c0.223,0.133,0.455,0.254,0.698,0.354
	c0.717,0.294,1.51,0.444,2.358,0.444c1.2,0,2.299-0.321,3.253-0.932c0.277,0.18,0.567,0.344,0.881,0.476
	c0.736,0.313,1.547,0.472,2.414,0.472c0.832,0,1.625-0.151,2.356-0.448c0.229-0.094,0.45-0.205,0.663-0.326
	c0.441,0.38,1.015,0.608,1.643,0.608h1.901c0.438,0,0.853-0.11,1.212-0.309c0.36,0.198,0.773,0.309,1.213,0.309h1.9
	c0.439,0,0.853-0.11,1.213-0.309c0.359,0.198,0.772,0.309,1.213,0.309h1.9c1.395,0,2.524-1.13,2.524-2.523v-4.55
	C194.616,21.123,194.551,20.52,194.42,19.975z M176.299,22.559c0.189-0.109,0.411-0.173,0.607-0.173
	c0.205,0,0.486,0.099,0.709,0.285c-0.217,0.175-0.499,0.287-0.754,0.287c-0.207,0-0.489-0.103-0.711-0.294
	C176.196,22.626,176.248,22.591,176.299,22.559z M164.568,26.649c0.049-0.067,0.104-0.131,0.152-0.199
	c0.084,0.02,0.171,0.032,0.265,0.032c0.161,0,0.308-0.032,0.442-0.092c0.046,0.073,0.092,0.146,0.141,0.216
	c-0.175,0.077-0.369,0.124-0.566,0.124C164.857,26.73,164.71,26.697,164.568,26.649z"/>
<g>
	<path fill="#005AA9" d="M86.617,21.343c0,0.912-0.116,1.695-0.352,2.353c-0.236,0.656-0.546,1.194-0.934,1.616
		c-0.387,0.421-0.829,0.729-1.325,0.923c-0.499,0.193-1.003,0.29-1.513,0.29c-0.955,0-1.762-0.29-2.426-0.871h-0.063v3.896
		c-0.552,0.194-1.101,0.39-1.646,0.59c-0.547,0.2-1.088,0.405-1.627,0.611V16.203h3.254v0.87h0.06
		c0.36-0.331,0.782-0.595,1.267-0.787c0.482-0.194,0.945-0.291,1.388-0.291c0.554,0,1.067,0.101,1.545,0.302
		c0.477,0.2,0.892,0.515,1.243,0.941c0.353,0.43,0.629,0.98,0.828,1.658C86.518,19.573,86.617,20.39,86.617,21.343z M83.24,21.238
		c-0.016-0.884-0.156-1.529-0.426-1.937c-0.27-0.408-0.646-0.612-1.13-0.612c-0.29,0-0.587,0.074-0.89,0.219
		c-0.306,0.145-0.567,0.349-0.79,0.611v3.522c0.208,0.235,0.45,0.429,0.728,0.581c0.275,0.152,0.559,0.229,0.851,0.229
		c0.523,0,0.931-0.198,1.221-0.592C83.096,22.866,83.24,22.193,83.24,21.238z"/>
	<path fill="#005AA9" d="M93.539,26.316v-0.869l-0.063-0.022c-0.221,0.235-0.463,0.429-0.725,0.581
		c-0.264,0.152-0.519,0.27-0.768,0.353c-0.248,0.083-0.483,0.141-0.703,0.176c-0.223,0.034-0.409,0.053-0.561,0.053
		c-0.498,0-0.954-0.063-1.369-0.188c-0.412-0.124-0.769-0.321-1.065-0.59c-0.298-0.271-0.532-0.615-0.706-1.037
		c-0.173-0.421-0.258-0.928-0.258-1.522c0-0.554,0.104-1.04,0.31-1.462c0.207-0.421,0.491-0.771,0.851-1.046
		c0.36-0.276,0.769-0.484,1.232-0.623c0.463-0.137,0.957-0.206,1.482-0.206c0.4,0,0.784,0.023,1.15,0.072
		c0.365,0.048,0.763,0.156,1.191,0.321v-0.481c0-0.881-0.553-1.321-1.657-1.321c-0.886,0-1.812,0.193-2.777,0.581l-0.788-2.309
		c0.594-0.272,1.24-0.479,1.938-0.615c0.698-0.138,1.398-0.207,2.104-0.207c2.93,0,4.395,1.258,4.395,3.771v6.591H93.539
		L93.539,26.316z M93.539,22.4c-0.193-0.11-0.415-0.207-0.662-0.291c-0.25-0.082-0.533-0.124-0.852-0.124
		c-0.373,0-0.694,0.09-0.963,0.27c-0.27,0.18-0.404,0.456-0.404,0.83c0,0.345,0.121,0.606,0.362,0.787
		c0.241,0.18,0.556,0.269,0.943,0.269c0.276,0,0.559-0.059,0.85-0.176c0.29-0.117,0.532-0.271,0.726-0.467V22.4L93.539,22.4z"/>
	<path fill="#005AA9" d="M99.735,30.357l1.306-3.605l-3.957-10.549h3.357l1.243,3.896l0.891,3.089h0.083l0.933-3.089l1.265-3.896
		h3.254l-5.16,14.155L99.735,30.357L99.735,30.357z"/>
	<path fill="#005AA9" d="M114.906,26.316v-5.595c0-0.706-0.107-1.206-0.322-1.504c-0.214-0.296-0.543-0.445-0.984-0.445
		c-0.331,0-0.607,0.101-0.829,0.3c-0.222,0.201-0.38,0.46-0.477,0.777c-0.056,0.153-0.093,0.321-0.115,0.508
		c-0.021,0.188-0.029,0.378-0.029,0.57v5.389h-3.274V16.203h3.274v1.035h0.082c0.359-0.413,0.78-0.728,1.264-0.941
		c0.483-0.215,0.948-0.322,1.39-0.322c0.705,0,1.273,0.146,1.71,0.435c0.435,0.292,0.762,0.658,0.984,1.099
		c0.496-0.511,1.022-0.894,1.575-1.148c0.551-0.257,1.104-0.385,1.657-0.385c1.216,0,2.086,0.373,2.611,1.119
		c0.524,0.746,0.788,1.748,0.788,3.006v6.217h-3.275v-5.595c0-0.706-0.106-1.206-0.321-1.504c-0.214-0.296-0.541-0.445-0.984-0.445
		c-0.317,0-0.576,0.087-0.776,0.259c-0.2,0.173-0.356,0.397-0.467,0.674c-0.07,0.151-0.121,0.328-0.155,0.529
		c-0.035,0.2-0.053,0.412-0.053,0.632v5.45H114.906z"/>
	<path fill="#005AA9" d="M134.905,22.108h-6.343c0.112,1.23,0.81,1.846,2.095,1.846c0.387,0,0.797-0.06,1.233-0.177
		c0.435-0.117,0.867-0.271,1.297-0.466l1.096,2.136c-0.69,0.412-1.357,0.701-1.999,0.859c-0.643,0.158-1.294,0.238-1.958,0.238
		c-0.857,0-1.607-0.129-2.25-0.385c-0.641-0.254-1.174-0.609-1.596-1.066c-0.421-0.455-0.734-1.008-0.942-1.658
		c-0.207-0.648-0.31-1.368-0.31-2.154c0-0.803,0.117-1.53,0.352-2.188c0.235-0.656,0.572-1.217,1.008-1.679
		c0.438-0.463,0.963-0.817,1.578-1.066c0.616-0.248,1.313-0.373,2.088-0.373c0.831,0,1.54,0.132,2.129,0.394
		s1.069,0.629,1.443,1.098c0.375,0.47,0.648,1.03,0.82,1.68c0.173,0.648,0.259,1.355,0.259,2.113V22.108L134.905,22.108z
		 M131.631,20.285c-0.028-0.512-0.148-0.938-0.361-1.284c-0.216-0.346-0.607-0.518-1.173-0.518c-0.4,0-0.745,0.15-1.036,0.454
		c-0.289,0.306-0.455,0.754-0.498,1.348H131.631z"/>
	<path fill="#005AA9" d="M145.475,26.316h-3.273v-5.595c0-0.706-0.131-1.202-0.393-1.493c-0.261-0.291-0.61-0.436-1.05-0.436
		c-0.384,0-0.714,0.101-0.987,0.301c-0.274,0.2-0.467,0.501-0.576,0.902c-0.028,0.123-0.055,0.267-0.084,0.425
		c-0.026,0.159-0.041,0.328-0.041,0.508v5.388h-3.273V16.203h3.273v1.058h0.084c0.344-0.4,0.773-0.712,1.289-0.934
		c0.518-0.22,0.996-0.331,1.437-0.331c0.646,0,1.198,0.097,1.651,0.29c0.456,0.192,0.828,0.466,1.116,0.819
		c0.289,0.351,0.5,0.783,0.631,1.295c0.13,0.511,0.196,1.077,0.196,1.699V26.316L145.475,26.316z"/>
	<path fill="#005AA9" d="M151.258,16.203h2.154v2.342h-2.154v3.71c0,0.524,0.078,0.89,0.238,1.098
		c0.158,0.206,0.486,0.311,0.982,0.311c0.167,0,0.346-0.007,0.54-0.021c0.192-0.014,0.415-0.034,0.663-0.063l0.248,2.571
		c-1.022,0.276-1.969,0.414-2.84,0.414c-0.987,0-1.751-0.238-2.293-0.714c-0.543-0.478-0.814-1.29-0.814-2.437v-4.869h-1.514v-2.342
		h1.554v-2.362l3.233-1.181v3.543H151.258z"/>
	<path fill="#005AA9" d="M163.133,23.373c0,0.513-0.108,0.969-0.322,1.369c-0.213,0.4-0.512,0.734-0.891,1.004
		c-0.38,0.271-0.842,0.473-1.389,0.612c-0.547,0.138-1.15,0.207-1.814,0.207c-0.731,0-1.475-0.104-2.228-0.311
		c-0.753-0.208-1.469-0.498-2.146-0.871l1.078-2.237c0.622,0.317,1.205,0.557,1.752,0.715c0.545,0.157,1.019,0.237,1.419,0.237
		c0.333,0,0.615-0.054,0.851-0.165c0.234-0.111,0.352-0.29,0.352-0.539c0-0.276-0.113-0.48-0.342-0.61
		c-0.228-0.132-0.585-0.273-1.066-0.426c-0.664-0.194-1.227-0.391-1.689-0.59c-0.463-0.201-0.836-0.426-1.119-0.675
		c-0.285-0.248-0.491-0.535-0.623-0.859c-0.131-0.325-0.196-0.702-0.196-1.131c0-0.926,0.36-1.679,1.077-2.258
		c0.719-0.581,1.749-0.871,3.09-0.871c0.704,0,1.384,0.084,2.041,0.249c0.657,0.166,1.309,0.407,1.957,0.726l-1.015,2.301
		c-0.622-0.333-1.179-0.546-1.668-0.643c-0.492-0.097-0.874-0.145-1.15-0.145c-0.306,0-0.546,0.064-0.726,0.197
		c-0.181,0.131-0.27,0.271-0.27,0.425c0,0.18,0.086,0.331,0.258,0.454c0.174,0.125,0.479,0.249,0.924,0.374
		c0.648,0.18,1.215,0.365,1.699,0.56c0.483,0.194,0.884,0.422,1.201,0.684c0.318,0.264,0.556,0.574,0.715,0.933
		C163.053,22.448,163.133,22.876,163.133,23.373z"/>
	<path fill="#005AA9" d="M164.985,26.482c-0.319,0-0.585-0.112-0.8-0.33c-0.216-0.22-0.323-0.489-0.323-0.808
		c0-0.36,0.121-0.64,0.36-0.839s0.5-0.3,0.779-0.3c0.318,0,0.581,0.11,0.784,0.33c0.204,0.219,0.307,0.488,0.307,0.809
		c0,0.318-0.107,0.588-0.322,0.808C165.557,26.372,165.295,26.482,164.985,26.482z"/>
	<path fill="#005AA9" d="M166.976,22.71c0-0.589,0.079-1.121,0.237-1.595c0.158-0.473,0.382-0.878,0.67-1.213
		c0.287-0.334,0.639-0.591,1.057-0.771c0.415-0.181,0.89-0.27,1.42-0.27c0.498,0,0.967,0.087,1.406,0.262
		c0.44,0.175,0.844,0.471,1.213,0.89l-1.137,1.213c-0.262-0.278-0.502-0.474-0.719-0.583c-0.22-0.11-0.471-0.166-0.748-0.166
		c-0.48,0-0.85,0.2-1.108,0.6c-0.261,0.398-0.39,0.928-0.39,1.587c0,0.66,0.125,1.188,0.375,1.587c0.248,0.398,0.634,0.6,1.152,0.6
		c0.508,0,1.008-0.265,1.496-0.794l1.152,1.152c-0.719,0.838-1.627,1.257-2.724,1.257c-0.52,0-0.984-0.085-1.397-0.255
		c-0.412-0.168-0.765-0.417-1.058-0.74c-0.291-0.324-0.515-0.719-0.668-1.183C167.052,23.825,166.976,23.298,166.976,22.71z"/>
	<path fill="#005AA9" d="M176.877,26.482c-0.527,0-1.004-0.092-1.426-0.271c-0.424-0.179-0.784-0.434-1.084-0.762
		c-0.298-0.33-0.53-0.729-0.693-1.198c-0.164-0.468-0.246-0.993-0.246-1.571c0-0.6,0.083-1.135,0.254-1.609
		c0.169-0.475,0.408-0.873,0.716-1.197c0.31-0.325,0.678-0.574,1.104-0.749c0.43-0.174,0.898-0.261,1.405-0.261
		c0.509,0,0.976,0.087,1.404,0.261c0.429,0.175,0.794,0.427,1.097,0.757c0.305,0.329,0.542,0.729,0.71,1.197
		c0.17,0.469,0.255,0.993,0.255,1.571c0,0.6-0.088,1.136-0.262,1.608c-0.174,0.475-0.416,0.876-0.725,1.206
		c-0.31,0.328-0.677,0.582-1.105,0.755C177.853,26.394,177.385,26.482,176.877,26.482z M176.861,20.435
		c-0.5,0-0.881,0.209-1.143,0.628c-0.262,0.42-0.39,0.948-0.39,1.587c0,0.719,0.134,1.275,0.405,1.669
		c0.271,0.396,0.661,0.591,1.172,0.591c0.251,0,0.475-0.057,0.67-0.172c0.195-0.114,0.358-0.273,0.488-0.479
		c0.131-0.204,0.23-0.44,0.301-0.71c0.071-0.271,0.106-0.559,0.106-0.868c0-0.668-0.136-1.21-0.407-1.625
		C177.795,20.643,177.393,20.435,176.861,20.435z"/>
	<path fill="#005AA9" d="M185.865,26.316v-4.221c0-0.509-0.077-0.905-0.232-1.189c-0.154-0.285-0.457-0.428-0.905-0.428
		c-0.31,0-0.565,0.096-0.771,0.285c-0.203,0.188-0.346,0.43-0.426,0.719c-0.061,0.2-0.09,0.433-0.09,0.703v4.131h-1.901v-7.305
		h1.901v0.779h0.046c0.258-0.309,0.557-0.541,0.896-0.697c0.34-0.152,0.68-0.23,1.02-0.23c0.509,0,0.919,0.1,1.233,0.299
		c0.315,0.2,0.557,0.469,0.728,0.809c0.408-0.43,0.813-0.721,1.212-0.877c0.398-0.152,0.773-0.23,1.122-0.23
		c0.428,0,0.796,0.066,1.1,0.202c0.305,0.134,0.554,0.328,0.75,0.583c0.193,0.254,0.332,0.56,0.418,0.913
		c0.085,0.354,0.127,0.756,0.127,1.205v4.55h-1.9v-4.221c0-0.509-0.077-0.905-0.232-1.189c-0.154-0.285-0.457-0.428-0.905-0.428
		c-0.3,0-0.553,0.088-0.757,0.264c-0.203,0.173-0.346,0.405-0.427,0.694c-0.069,0.17-0.104,0.395-0.104,0.673v4.207H185.865
		L185.865,26.316z"/>
</g>
</svg>
